<svg id="icon_5" data-name="icon 5" xmlns="http://www.w3.org/2000/svg" width="85.318" height="85.318" viewBox="0 0 85.318 85.318">
  <g id="Core">
    <g id="language">
      <path id="Shape" d="M42.659,0A42.659,42.659,0,1,0,85.318,42.659,42.785,42.785,0,0,0,42.659,0ZM72.094,25.6H59.723a67.423,67.423,0,0,0-5.972-15.357c7.679,2.986,14.5,8.105,18.343,15.357ZM42.659,8.532A57.281,57.281,0,0,1,50.764,25.6H34.554A62.723,62.723,0,0,1,42.659,8.532ZM9.812,51.191a27.505,27.505,0,0,1-1.28-8.532,27.505,27.505,0,0,1,1.28-8.532h14.5a57.172,57.172,0,0,0-.427,8.532c0,2.986.427,5.546.427,8.532Zm3.413,8.532H25.6A67.424,67.424,0,0,0,31.568,75.08c-7.679-2.986-14.5-8.105-18.343-15.357ZM25.6,25.6H13.224A35.954,35.954,0,0,1,31.568,10.238,67.424,67.424,0,0,0,25.6,25.6ZM42.659,76.787a57.281,57.281,0,0,1-8.105-17.064h16.21a62.723,62.723,0,0,1-8.105,17.064Zm9.812-25.6H32.848a57.812,57.812,0,0,1-.853-8.532,57.812,57.812,0,0,1,.853-8.532H52.9a57.813,57.813,0,0,1,.853,8.532c0,2.986-.853,5.546-1.28,8.532Zm1.28,23.889a60.525,60.525,0,0,0,5.972-15.357H72.094C68.255,66.975,61.429,72.094,53.751,75.08Zm7.679-23.889a57.173,57.173,0,0,0,.427-8.532c0-2.986-.427-5.546-.427-8.532h14.5a27.506,27.506,0,0,1,1.28,8.532,27.506,27.506,0,0,1-1.28,8.532Z" fill="#fffdfd" fill-rule="evenodd"/>
    </g>
  </g>
</svg>
