<svg xmlns="http://www.w3.org/2000/svg" width="79.938" height="81.141" viewBox="0 0 79.938 81.141">
  <g id="icon_6" data-name="icon 6" transform="translate(-0.261)">
    <g id="Core" transform="translate(0.261)">
      <g id="settings" transform="translate(0)">
        <path id="Shape" d="M70.145,44.852c0-1.223.408-2.446.408-4.077a12.57,12.57,0,0,0-.408-4.077l8.563-6.932a1.921,1.921,0,0,0,.408-2.446L70.961,13.048a2.285,2.285,0,0,0-2.446-.408L58.321,16.718a38.719,38.719,0,0,0-6.932-4.077l-1.631-10.6A1.641,1.641,0,0,0,48.127,0H31.817C31,0,29.778.815,29.778,1.631L28.147,12.64c-2.446.815-4.485,2.446-6.932,4.077L11.43,12.64a2.521,2.521,0,0,0-2.854.815L.421,27.727c-.408.408,0,1.631.815,2.446L9.8,36.7c0,1.223-.408,2.446-.408,4.077A12.57,12.57,0,0,0,9.8,44.852L1.236,51.784A1.921,1.921,0,0,0,.828,54.23L8.983,68.5a2.285,2.285,0,0,0,2.446.408l10.194-4.077a38.72,38.72,0,0,0,6.932,4.077l1.631,10.6a1.865,1.865,0,0,0,2.039,1.631h16.31c.815,0,2.039-.815,2.039-1.631l1.631-10.6a38.719,38.719,0,0,0,6.932-4.077L69.33,68.909a1.961,1.961,0,0,0,2.446-.815l8.155-14.271c.408-.815.408-2.039-.408-2.446l-9.378-6.524ZM39.972,55.046A14.271,14.271,0,1,1,54.243,40.775,14.447,14.447,0,0,1,39.972,55.046Z" transform="translate(-0.261)" fill="#fffdfd" fill-rule="evenodd"/>
      </g>
    </g>
  </g>
</svg>
