<svg id="icon-7" xmlns="http://www.w3.org/2000/svg" width="116" height="116" viewBox="0 0 116 116">
  <g id="Core">
    <g id="shopping-cart">
      <path id="Shape" d="M34.8,92.8a11.6,11.6,0,1,0,11.6,11.6A11.634,11.634,0,0,0,34.8,92.8ZM0,0V11.6H11.6L32.48,55.68,24.36,69.6a20.607,20.607,0,0,0-1.16,5.8A11.634,11.634,0,0,0,34.8,87h69.6V75.4H37.12a1.247,1.247,0,0,1-1.16-1.16v-.58l5.22-9.86H84.1A10.578,10.578,0,0,0,93.96,58l20.88-37.7A3.193,3.193,0,0,0,116,17.4a5.48,5.48,0,0,0-5.8-5.8H24.36L19.14,0ZM92.8,92.8a11.6,11.6,0,1,0,11.6,11.6A11.634,11.634,0,0,0,92.8,92.8Z" fill="#fff9f9" fill-rule="evenodd"/>
    </g>
  </g>
</svg>
