<svg xmlns="http://www.w3.org/2000/svg" width="110.839" height="246.973" viewBox="0 0 110.839 246.973">
  <g id="server_4" data-name="server 4" transform="translate(0 0)">
    <path id="Trazado_2" data-name="Trazado 2" d="M960,500.423" transform="translate(-904.268 -327.507)" fill="none" stroke="#707070" stroke-width="1"/>
    <path id="Trazado_14" data-name="Trazado 14" d="M779.86,255.791l.316,160.707,55,31.111V287.238Z" transform="translate(-779.86 -200.717)" fill="#13adf8"/>
    <path id="Trazado_16" data-name="Trazado 16" d="M780.395,423v5.972l5.244,3.01v-6Z" transform="translate(-774.834 -342.344)" fill="#36edfa"/>
    <path id="Trazado_16-2" data-name="Trazado 16" d="M780.395,423v5.972l5.244,3.01v-6Z" transform="translate(-774.834 -328.155)" fill="#36edfa"/>
    <path id="Trazado_16-3" data-name="Trazado 16" d="M780.395,423v5.972l5.244,3.01v-6Z" transform="translate(-774.834 -313.966)" fill="#36edfa"/>
    <path id="Trazado_16-4" data-name="Trazado 16" d="M780.395,423v5.972l5.244,3.01v-6Z" transform="translate(-774.834 -299.777)" fill="#36edfa"/>
    <path id="Trazado_16-5" data-name="Trazado 16" d="M780.395,423v5.972l5.244,3.01v-6Z" transform="translate(-774.834 -285.587)" fill="#36edfa"/>
    <path id="Trazado_16-6" data-name="Trazado 16" d="M780.395,423v5.972l5.244,3.01v-6Z" transform="translate(-774.834 -271.398)" fill="#36edfa"/>
    <path id="Trazado_16-7" data-name="Trazado 16" d="M780.395,423v5.972l5.244,3.01v-6Z" transform="translate(-774.834 -257.209)" fill="#36edfa"/>
    <path id="Trazado_16-8" data-name="Trazado 16" d="M780.395,423v5.972l5.244,3.01v-6Z" transform="translate(-774.834 -243.02)" fill="#36edfa"/>
    <path id="Trazado_16-9" data-name="Trazado 16" d="M780.395,423v5.972l5.244,3.01v-6Z" transform="translate(-774.834 -228.831)" fill="#36edfa"/>
    <path id="Trazado_16-10" data-name="Trazado 16" d="M780.395,423v5.972l5.244,3.01v-6Z" transform="translate(-736.996 -322.243)" fill="#36edfa"/>
    <path id="Trazado_16-11" data-name="Trazado 16" d="M780.395,423v5.972l5.244,3.01v-6Z" transform="translate(-736.996 -308.054)" fill="#36edfa"/>
    <path id="Trazado_16-12" data-name="Trazado 16" d="M780.395,423v5.972l5.244,3.01v-6Z" transform="translate(-736.996 -293.865)" fill="#36edfa"/>
    <path id="Trazado_16-13" data-name="Trazado 16" d="M780.395,423v5.972l5.244,3.01v-6Z" transform="translate(-736.996 -279.675)" fill="#36edfa"/>
    <path id="Trazado_16-14" data-name="Trazado 16" d="M780.395,423v5.972l5.244,3.01v-6Z" transform="translate(-736.996 -265.486)" fill="#36edfa"/>
    <path id="Trazado_16-15" data-name="Trazado 16" d="M780.395,423v5.972l5.244,3.01v-6Z" transform="translate(-736.996 -251.297)" fill="#36edfa"/>
    <path id="Trazado_16-16" data-name="Trazado 16" d="M780.395,423v5.972l5.244,3.01v-6Z" transform="translate(-736.996 -237.108)" fill="#36edfa"/>
    <path id="Trazado_16-17" data-name="Trazado 16" d="M780.395,423v5.972l5.244,3.01v-6Z" transform="translate(-736.996 -222.918)" fill="#36edfa"/>
    <path id="Trazado_16-18" data-name="Trazado 16" d="M780.395,423v5.972l5.244,3.01v-6Z" transform="translate(-736.996 -208.729)" fill="#36edfa"/>
    <path id="Trazado_56" data-name="Trazado 56" d="M780.395,423v5.972l25.4,13.656v-5.8Z" transform="translate(-765.886 -337.747)" fill="#0457d3"/>
    <path id="Trazado_56-2" data-name="Trazado 56" d="M780.395,423v5.972l25.4,13.656v-5.8Z" transform="translate(-765.886 -323.558)" fill="#0457d3"/>
    <path id="Trazado_56-3" data-name="Trazado 56" d="M780.395,423v5.972l25.4,13.656v-5.8Z" transform="translate(-765.886 -309.368)" fill="#0457d3"/>
    <path id="Trazado_56-4" data-name="Trazado 56" d="M780.395,423v5.972l25.4,13.656v-5.8Z" transform="translate(-765.886 -295.179)" fill="#0457d3"/>
    <path id="Trazado_56-5" data-name="Trazado 56" d="M780.395,423v5.972l25.4,13.656v-5.8Z" transform="translate(-765.886 -280.99)" fill="#0457d3"/>
    <path id="Trazado_56-6" data-name="Trazado 56" d="M780.395,423v5.972l25.4,13.656v-5.8Z" transform="translate(-765.886 -266.801)" fill="#0457d3"/>
    <path id="Trazado_56-7" data-name="Trazado 56" d="M780.395,423v5.972l25.4,13.656v-5.8Z" transform="translate(-765.886 -252.612)" fill="#0457d3"/>
    <path id="Trazado_56-8" data-name="Trazado 56" d="M780.395,423v5.972l25.4,13.656v-5.8Z" transform="translate(-765.886 -238.422)" fill="#0457d3"/>
    <path id="Trazado_56-9" data-name="Trazado 56" d="M780.395,423v5.972l25.4,13.656v-5.8Z" transform="translate(-765.886 -224.233)" fill="#0457d3"/>
    <path id="Trazado_15" data-name="Trazado 15" d="M835.6,257.556l.4,160.708-55.6,31.7V288.679Z" transform="translate(-725.154 -202.994)" fill="#1884b8"/>
    <path id="Trazado_13" data-name="Trazado 13" d="M17.1,17.1,78.37,0,61.4,61.1,0,78.37Z" transform="translate(55.423 0) rotate(45)" fill="rgba(0,233,249,0.79)"/>
  </g>
</svg>
