<svg id="server_3" data-name="server 3" xmlns="http://www.w3.org/2000/svg" width="110.832" height="150.014" viewBox="0 0 110.832 150.014">
  <path id="Trazado_2" data-name="Trazado 2" d="M960,500.423" transform="translate(-904.276 -424.467)" fill="none" stroke="#707070" stroke-width="1"/>
  <path id="Trazado_14" data-name="Trazado 14" d="M780.395,419.889v63.689l55,31.111.316-63.353Z" transform="translate(-780.086 -364.757)" fill="#13adf8"/>
  <path id="Trazado_16" data-name="Trazado 16" d="M780.395,423v5.972l5.244,3.01v-6Z" transform="translate(-774.841 -354.76)" fill="#36edfa"/>
  <path id="Trazado_23" data-name="Trazado 23" d="M780.395,423v5.972l5.244,3.01v-6Z" transform="translate(-735.965 -334.838)" fill="#36edfa"/>
  <path id="Trazado_18" data-name="Trazado 18" d="M780.395,423v5.972l25.4,13.656v-5.8Z" transform="translate(-765.893 -350.162)" fill="#0457d3"/>
  <path id="Trazado_19" data-name="Trazado 19" d="M780.395,423v5.972l25.4,13.656v-5.8Z" transform="translate(-765.893 -340.712)" fill="#0457d3"/>
  <path id="Trazado_20" data-name="Trazado 20" d="M780.395,423v5.972l25.4,13.656v-5.8Z" transform="translate(-765.893 -331.007)" fill="#0457d3"/>
  <path id="Trazado_21" data-name="Trazado 21" d="M780.395,423v5.972l25.4,13.656v-5.8Z" transform="translate(-765.893 -321.301)" fill="#0457d3"/>
  <path id="Trazado_22" data-name="Trazado 22" d="M780.395,423v5.972l25.4,14.061v-6.207Z" transform="translate(-765.893 -310.319)" fill="#0457d3"/>
  <path id="Trazado_16-2" data-name="Trazado 16" d="M780.395,423v5.972l5.244,3.01v-6Z" transform="translate(-774.841 -344.799)" fill="#36edfa"/>
  <path id="Trazado_24" data-name="Trazado 24" d="M780.395,423v5.972l5.244,3.01v-6Z" transform="translate(-735.965 -324.877)" fill="#36edfa"/>
  <path id="Trazado_16-3" data-name="Trazado 16" d="M780.395,423v5.972l5.244,3.01v-6Z" transform="translate(-774.841 -334.838)" fill="#36edfa"/>
  <path id="Trazado_25" data-name="Trazado 25" d="M780.395,423v5.972l5.244,3.01v-6Z" transform="translate(-735.965 -314.916)" fill="#36edfa"/>
  <path id="Trazado_16-4" data-name="Trazado 16" d="M780.395,423v5.972l5.244,3.01v-6Z" transform="translate(-774.841 -324.877)" fill="#36edfa"/>
  <path id="Trazado_26" data-name="Trazado 26" d="M780.395,423v5.972l5.244,3.01v-6Z" transform="translate(-735.965 -304.955)" fill="#36edfa"/>
  <path id="Trazado_17" data-name="Trazado 17" d="M780.395,423v5.972l5.244,3.01v-6Z" transform="translate(-774.841 -314.916)" fill="#36edfa"/>
  <path id="Trazado_27" data-name="Trazado 27" d="M780.395,423v5.972l5.244,3.01v-6Z" transform="translate(-735.965 -294.994)" fill="#36edfa"/>
  <path id="Trazado_15" data-name="Trazado 15" d="M835.993,423v62.9l-55.6,31.7.4-63.474Z" transform="translate(-725.161 -367.584)" fill="#1884b8"/>
  <path id="Trazado_13" data-name="Trazado 13" d="M17.1,17.1,78.37,0,61.4,61.1,0,78.37Z" transform="translate(55.416 0) rotate(45)" fill="rgba(0,233,249,0.79)"/>
</svg>
